<svg xmlns="http://www.w3.org/2000/svg" viewBox="0 0 1500 2040"><defs><style>.a{fill:#5eebc4;}.b{fill:#2642f1;}</style></defs><title>blob-dark-blue</title><path class="a" d="M1500,472.14,899.18,652.85c-35.95,10-57.35,22.4-69.33,48.08s-7.69,50,7.73,84l248.54,578.21c7.7,17,14.43,31.3,34.61,40.71l255,118.9c12.84,6,27.15-.74,33.13-13.58q5.15-11-.74-27.14L1128.88,840.37,1500,730.57Z"/><path class="b" d="M1500,0H1344.53l-49.85,215.93c-50.52,218.83-153,358.86-358.68,425,155.89,149.58,189.78,321.09,139.26,539.93L964,1662.9c-34.41,149.06-22.46,198.59,139.29,235.93L1500,1989.62Z"/></svg>
